<svg width="180" height="181" fill="none" xmlns="http://www.w3.org/2000/svg"><path d="m109.425 28.676-.84.543.84-.543L92.519 2.551c-1.183-1.826-3.855-1.826-5.038 0L70.575 28.676a1 1 0 0 1-1.2.39L40.344 17.868c-2.03-.783-4.193.788-4.076 2.96l1.679 31.073a1 1 0 0 1-.741 1.02l-30.07 8.006c-2.104.56-2.93 3.102-1.557 4.79L25.199 89.87a1 1 0 0 1 0 1.262L5.578 115.282c-1.373 1.689-.547 4.231 1.556 4.791l30.07 8.006a1 1 0 0 1 .742 1.02l-1.678 31.073c-.118 2.172 2.044 3.743 4.075 2.96l29.033-11.198c.441-.17.942-.007 1.2.39l16.905 26.125c1.183 1.826 3.855 1.826 5.038 0l16.906-26.125a1 1 0 0 1 1.199-.39l29.033 11.198c2.03.783 4.193-.788 4.076-2.96l-1.679-31.073a1 1 0 0 1 .742-1.02l30.07-8.006c2.103-.56 2.929-3.102 1.556-4.791l-19.621-24.151a.999.999 0 0 1 0-1.262l19.621-24.151c1.373-1.69.547-4.231-1.556-4.791l-30.07-8.006a1 1 0 0 1-.742-1.02l1.679-31.073c.117-2.172-2.045-3.743-4.076-2.96l-29.033 11.198a1 1 0 0 1-1.199-.39z" fill="#90EECB" stroke="#90EECB" stroke-width="2"/><path fill-rule="evenodd" clip-rule="evenodd" d="M89.634 14.34 75.406 36.328a5 5 0 0 1-5.998 1.948l-24.433-9.424 1.412 26.15a5 5 0 0 1-3.706 5.102L17.374 66.84l16.513 20.326a5 5 0 0 1 0 6.306l-16.513 20.325 25.307 6.738a5 5 0 0 1 3.706 5.101l-1.412 26.15 24.434-9.424a5.001 5.001 0 0 1 5.996 1.949l14.229 21.986 14.228-21.986a5 5 0 0 1 5.997-1.949l24.433 9.424-1.412-26.15a5 5 0 0 1 3.706-5.101l25.307-6.738-16.513-20.325a4.998 4.998 0 0 1 0-6.306l16.513-20.326-25.307-6.737A5 5 0 0 1 132.88 55l1.412-26.15-24.433 9.424a5 5 0 0 1-5.997-1.948L89.634 14.34zm1.679-2.927a2 2 0 0 0-3.359 0L72.887 34.697a2 2 0 0 1-2.399.78l-25.875-9.98a2 2 0 0 0-2.717 1.973l1.495 27.693a2 2 0 0 1-1.482 2.04l-26.8 7.136a2 2 0 0 0-1.038 3.194L31.56 89.058a2 2 0 0 1 0 2.522l-17.488 21.525a2 2 0 0 0 1.038 3.194l26.8 7.135a2 2 0 0 1 1.483 2.04l-1.496 27.694a2 2 0 0 0 2.717 1.973l25.875-9.98a2 2 0 0 1 2.399.78l15.067 23.283a2 2 0 0 0 3.359 0l15.067-23.283a2.002 2.002 0 0 1 2.399-.78l25.876 9.98a1.999 1.999 0 0 0 2.716-1.973l-1.495-27.694a1.999 1.999 0 0 1 1.482-2.04l26.8-7.135a2 2 0 0 0 1.038-3.194L147.708 91.58a2 2 0 0 1 0-2.522l17.488-21.525a2 2 0 0 0-1.038-3.194l-26.8-7.135a2 2 0 0 1-1.482-2.04l1.495-27.694a2 2 0 0 0-2.716-1.974l-25.876 9.98a2 2 0 0 1-2.399-.78L91.313 11.414z" fill="#1B1F21"/><path d="M51.622 76.303V63.697h8.25v2.163h-5.564v3.076h5.182V71.1h-5.182v5.203h-2.686zM59.188 76.303l5.615-12.606h2.166l5.615 12.606h-2.703l-1.144-2.736h-5.702l-1.126 2.736h-2.721zm6.672-9.656-1.923 4.757h3.916l-1.958-4.757h-.035zM77.855 76.5a9.638 9.638 0 0 1-2.72-.376c-.844-.25-1.549-.59-2.115-1.019l.78-2.181a6.661 6.661 0 0 0 1.854.93c.705.226 1.439.34 2.201.34.832 0 1.427-.132 1.785-.394.37-.274.555-.614.555-1.02 0-.345-.127-.62-.382-.822-.254-.203-.699-.376-1.334-.519l-1.958-.429c-2.184-.477-3.276-1.645-3.276-3.505 0-.798.208-1.496.624-2.092.416-.608.994-1.078 1.733-1.412.751-.334 1.618-.501 2.6-.501.843 0 1.635.125 2.374.376.74.25 1.352.602 1.837 1.054l-.78 2.04c-.947-.776-2.097-1.163-3.449-1.163-.727 0-1.294.149-1.698.447-.393.286-.59.661-.59 1.126 0 .346.122.626.365.84.242.215.664.388 1.265.52l1.958.428c2.242.501 3.362 1.634 3.362 3.398 0 .787-.208 1.478-.624 2.074-.404.584-.982 1.043-1.733 1.377-.74.322-1.617.483-2.634.483zM84.59 76.303V63.697h2.686v5.06h5.684v-5.06h2.687v12.606H92.96v-5.239h-5.684v5.24H84.59zM98.112 76.303V63.697h2.686v12.606h-2.686zM108.907 76.5c-1.201 0-2.258-.268-3.171-.805a5.716 5.716 0 0 1-2.114-2.27c-.497-.978-.746-2.123-.746-3.434s.249-2.45.746-3.415c.508-.978 1.213-1.735 2.114-2.271.901-.537 1.958-.805 3.171-.805 1.213 0 2.27.268 3.172.805a5.422 5.422 0 0 1 2.114 2.27c.508.966.762 2.099.762 3.398 0 1.311-.254 2.456-.762 3.433a5.54 5.54 0 0 1-2.114 2.29c-.902.536-1.959.804-3.172.804zm0-2.36c1.017 0 1.808-.364 2.374-1.091.578-.74.867-1.759.867-3.058 0-1.311-.283-2.325-.849-3.04-.566-.727-1.363-1.09-2.392-1.09-1.005 0-1.796.363-2.374 1.09-.566.715-.849 1.729-.849 3.04 0 1.3.283 2.319.849 3.058.578.727 1.369 1.09 2.374 1.09zM117.033 76.303V63.697h1.993l6.101 8.029v-8.03h2.495v12.607h-1.976l-6.117-8.046v8.046h-2.496zM51.622 97.303V84.697h8.25v2.163h-5.564v3.076h5.182V92.1h-5.182v5.203h-2.686zM59.188 97.303l5.615-12.606h2.166l5.615 12.606h-2.703l-1.144-2.736h-5.702l-1.126 2.736h-2.721zm6.672-9.656-1.923 4.757h3.916l-1.958-4.757h-.035zM77.855 97.5a9.638 9.638 0 0 1-2.72-.376c-.844-.25-1.549-.59-2.115-1.019l.78-2.181a6.661 6.661 0 0 0 1.854.93c.705.226 1.439.34 2.201.34.832 0 1.427-.132 1.785-.394.37-.274.555-.614.555-1.02 0-.345-.127-.62-.382-.822-.254-.203-.699-.376-1.334-.519l-1.958-.429c-2.184-.477-3.276-1.645-3.276-3.505 0-.798.208-1.496.624-2.092.416-.608.994-1.078 1.733-1.412.751-.334 1.618-.501 2.6-.501.843 0 1.635.125 2.374.376.74.25 1.352.602 1.837 1.054l-.78 2.04c-.947-.776-2.097-1.163-3.449-1.163-.727 0-1.294.149-1.698.447-.393.286-.59.661-.59 1.126 0 .346.122.626.365.84.242.215.664.388 1.265.52l1.958.428c2.242.501 3.362 1.634 3.362 3.398 0 .787-.208 1.478-.624 2.074-.404.584-.982 1.043-1.733 1.377-.74.322-1.617.483-2.634.483zM84.59 97.303V84.697h2.686v5.06h5.684v-5.06h2.687v12.606H92.96v-5.239h-5.684v5.24H84.59zM98.112 97.303V84.697h2.686v12.606h-2.686zM108.907 97.5c-1.201 0-2.258-.268-3.171-.805a5.717 5.717 0 0 1-2.114-2.27c-.497-.978-.746-2.123-.746-3.434s.249-2.45.746-3.415c.508-.978 1.213-1.735 2.114-2.271.901-.537 1.958-.805 3.171-.805 1.213 0 2.27.268 3.172.805a5.422 5.422 0 0 1 2.114 2.27c.508.966.762 2.099.762 3.398 0 1.311-.254 2.456-.762 3.433a5.54 5.54 0 0 1-2.114 2.29c-.902.536-1.959.804-3.172.804zm0-2.36c1.017 0 1.808-.364 2.374-1.091.578-.74.867-1.759.867-3.058 0-1.311-.283-2.325-.849-3.04-.566-.727-1.363-1.09-2.392-1.09-1.005 0-1.796.363-2.374 1.09-.566.715-.849 1.729-.849 3.04 0 1.3.283 2.319.849 3.058.578.727 1.369 1.09 2.374 1.09zM117.033 97.303V84.697h1.993l6.101 8.029v-8.03h2.495v12.607h-1.976l-6.117-8.046v8.046h-2.496zM51.622 117.318v-11.636h8.25v1.997h-5.564v2.839h5.182v1.997h-5.182v4.803h-2.686zM59.188 117.318l5.615-11.636h2.166l5.615 11.636h-2.703l-1.144-2.525h-5.702l-1.126 2.525h-2.721zm6.672-8.913-1.923 4.391h3.916l-1.958-4.391h-.035zM77.855 117.5c-.959 0-1.866-.116-2.72-.347-.844-.231-1.549-.544-2.115-.94l.78-2.014a6.893 6.893 0 0 0 1.854.858 7.7 7.7 0 0 0 2.201.314c.832 0 1.427-.121 1.785-.363.37-.254.555-.567.555-.941a.895.895 0 0 0-.382-.76c-.254-.187-.699-.346-1.334-.478l-1.958-.396c-2.184-.441-3.276-1.519-3.276-3.236 0-.737.208-1.381.624-1.931.416-.561.994-.996 1.733-1.304.751-.308 1.618-.462 2.6-.462a7.92 7.92 0 0 1 2.374.347c.74.231 1.352.555 1.837.973l-.78 1.882c-.947-.715-2.097-1.073-3.449-1.073-.727 0-1.294.138-1.698.413-.393.264-.59.611-.59 1.04 0 .319.122.578.365.776.242.198.664.357 1.265.478l1.958.396c2.242.463 3.362 1.508 3.362 3.137 0 .726-.208 1.364-.624 1.914-.404.54-.982.963-1.733 1.271-.74.297-1.617.446-2.634.446zM84.59 117.318v-11.636h2.686v4.671h5.684v-4.671h2.687v11.636H92.96v-4.836h-5.684v4.836H84.59zM98.112 117.318v-11.636h2.686v11.636h-2.686zM108.907 117.5c-1.201 0-2.258-.248-3.171-.743a5.473 5.473 0 0 1-2.114-2.096c-.497-.902-.746-1.959-.746-3.169 0-1.211.249-2.262.746-3.153a5.328 5.328 0 0 1 2.114-2.096c.901-.495 1.958-.743 3.171-.743 1.213 0 2.27.248 3.172.743a5.192 5.192 0 0 1 2.114 2.096c.508.891.762 1.937.762 3.136 0 1.211-.254 2.267-.762 3.169a5.294 5.294 0 0 1-2.114 2.113c-.902.495-1.959.743-3.172.743zm0-2.179c1.017 0 1.808-.335 2.374-1.007.578-.682.867-1.623.867-2.822 0-1.211-.283-2.146-.849-2.806-.566-.672-1.363-1.007-2.392-1.007-1.005 0-1.796.335-2.374 1.007-.566.66-.849 1.595-.849 2.806 0 1.199.283 2.14.849 2.822.578.672 1.369 1.007 2.374 1.007zM117.033 117.318v-11.636h1.993l6.101 7.411v-7.411h2.495v11.636h-1.976l-6.117-7.427v7.427h-2.496z" fill="#1B1F21"/></svg>