<svg width="29" height="29" fill="none" xmlns="http://www.w3.org/2000/svg"><path d="M14.5 15.75c.354 0 .651-.12.891-.36s.359-.536.359-.89V9.469c0-.354-.12-.646-.359-.875a1.24 1.24 0 0 0-.891-.344c-.354 0-.65.12-.89.359-.24.24-.36.537-.36.891v5.031c0 .354.12.646.36.875.24.23.536.344.89.344zm0 5c.354 0 .651-.12.891-.36s.359-.536.359-.89-.12-.651-.359-.891a1.213 1.213 0 0 0-.891-.359c-.354 0-.65.12-.89.359-.24.24-.36.537-.36.891s.12.65.36.89.536.36.89.36zm0 6.25c-1.73 0-3.354-.328-4.875-.985a12.614 12.614 0 0 1-3.969-2.671 12.615 12.615 0 0 1-2.671-3.969C2.328 17.855 2 16.229 2 14.5c0-1.73.328-3.354.985-4.875a12.614 12.614 0 0 1 2.671-3.969 12.632 12.632 0 0 1 3.969-2.672C11.145 2.328 12.771 2 14.5 2c1.73 0 3.354.328 4.875.984a12.633 12.633 0 0 1 3.969 2.672 12.614 12.614 0 0 1 2.671 3.969c.657 1.52.985 3.146.985 4.875 0 1.73-.328 3.354-.985 4.875a12.614 12.614 0 0 1-2.671 3.969 12.614 12.614 0 0 1-3.969 2.671c-1.52.657-3.146.985-4.875.985z" fill="#FCFAF9"/></svg>