<svg width="20" height="20" fill="none" xmlns="http://www.w3.org/2000/svg"><path fill-rule="evenodd" clip-rule="evenodd" d="M7.94.024 7.478.09a8.935 8.935 0 0 0-2.561.815C2.354 2.189.637 4.492.1 7.364c-.096.511-.133 1.885-.066 2.452.365 3.1 2.245 5.736 5.031 7.052 2.909 1.375 6.403 1.05 8.969-.832l.341-.25 2.108 2.107L18.591 20l.704-.704.705-.705-2.11-2.11-2.11-2.11.14-.177c.295-.373.679-1.01.936-1.553a8.732 8.732 0 0 0 .673-5.586A8.848 8.848 0 0 0 11.648.442C10.613.101 9.896-.009 8.773.001c-.395.003-.77.014-.833.023zm2.08 2.031c.595.097 1.443.385 2.021.687 1.89.987 3.2 2.772 3.598 4.899.117.62.116 1.855 0 2.447-.555 2.824-2.624 4.924-5.451 5.531-.624.134-1.918.146-2.549.024-1.393-.27-2.656-.925-3.62-1.877-2.693-2.66-2.761-6.952-.153-9.669a6.797 6.797 0 0 1 3.397-1.956 6.912 6.912 0 0 1 2.756-.086z" fill="#1B1F21"/></svg>