<svg width="14" height="14" viewBox="0 0 14 14" fill="none" xmlns="http://www.w3.org/2000/svg">
<path d="M6.12404 13.7126L7.79964 9.5063C7.83128 9.47316 7.86206 9.43923 7.89247 9.40494V13.5438C7.89247 13.7957 8.09673 14 8.34867 14C8.60062 14 8.80488 13.7957 8.80488 13.5438V8.88002L9.57791 10.8206C9.64701 10.9941 9.81493 11.108 10.0017 11.108H13.3868C13.6388 11.108 13.843 10.9037 13.843 10.6518C13.843 10.3998 13.6388 10.1956 13.3868 10.1956H10.3111L9.87672 9.10525C9.91812 9.10768 9.95971 9.10927 10.0017 9.10927C11.1647 9.10927 12.1109 8.16307 12.1109 7.00003C12.1109 5.83699 11.1647 4.89079 10.0017 4.89079C9.95971 4.89079 9.91807 4.89237 9.87672 4.8948L10.3111 3.80447H13.3868C13.6388 3.80447 13.843 3.60021 13.843 3.34827C13.843 3.09632 13.6388 2.89207 13.3868 2.89207H10.0017C9.81487 2.89207 9.64698 3.00593 9.57786 3.17945L8.80482 5.12004V0.456203C8.80482 0.204258 8.60056 0 8.34862 0C8.09667 0 7.89242 0.204258 7.89242 0.456203V4.59506C7.86204 4.56075 7.83122 4.52684 7.79958 4.4937L6.12404 0.287355C6.05492 0.113832 5.88703 0 5.70024 0L2.89234 0C2.64039 0 2.43614 0.204258 2.43614 0.456203C2.43614 0.708148 2.64039 0.912406 2.89234 0.912406H5.3909L6.46316 3.60421C6.15532 3.48674 5.82761 3.41001 5.4865 3.38056L4.94626 2.02434C4.87714 1.85079 4.70925 1.73696 4.52244 1.73696H0.613019C0.361073 1.73696 0.156816 1.94121 0.156816 2.19316C0.156816 2.44511 0.361073 2.64936 0.613019 2.64936L4.2131 2.64936L4.52208 3.425C2.82759 3.73218 1.53844 5.21831 1.53844 7C1.53844 8.78169 2.82756 10.2678 4.52205 10.5749L4.21307 11.3506H0.612991C0.361046 11.3506 0.156788 11.5548 0.156788 11.8068C0.156788 12.0587 0.361046 12.263 0.612991 12.263H4.52244C4.70925 12.263 4.87711 12.1492 4.94626 11.9756L5.4865 10.6194C5.82758 10.59 6.15532 10.5132 6.46319 10.3957L5.39093 13.0875H2.89237C2.64042 13.0875 2.43616 13.2918 2.43616 13.5437C2.43616 13.7957 2.64042 13.9999 2.89237 13.9999H5.70024C5.88703 14 6.05492 13.8862 6.12404 13.7126Z" fill="#D32222" stroke="#D32222" stroke-width="0.125"/>
</svg>
