<svg width="17" height="17" fill="none" xmlns="http://www.w3.org/2000/svg"><path fill-rule="evenodd" clip-rule="evenodd" d="M7.778.519a8.15 8.15 0 0 0-4.225 1.685c-.61.47-1.402 1.352-1.86 2.072-.197.311-.582 1.099-.72 1.475a9.594 9.594 0 0 0-.399 1.561c-.099.61-.099 1.769 0 2.38.14.862.361 1.56.74 2.331.414.844.844 1.441 1.533 2.13.689.69 1.287 1.12 2.13 1.533.772.379 1.47.6 2.332.74.61.099 1.769.099 2.379 0a7.87 7.87 0 0 0 2.332-.74c.843-.414 1.44-.844 2.13-1.533.689-.689 1.119-1.287 1.533-2.13.274-.56.413-.927.56-1.49.198-.75.248-1.161.248-2.031 0-.87-.05-1.281-.247-2.031a7.09 7.09 0 0 0-.561-1.49c-.414-.844-.844-1.442-1.533-2.13-.69-.69-1.287-1.12-2.13-1.534A7.782 7.782 0 0 0 9.703.582C9.243.51 8.216.476 7.778.52zm1.465 1.255a6.697 6.697 0 0 1 4.03 1.952c1.3 1.3 1.986 2.95 1.986 4.776 0 1.825-.686 3.476-1.985 4.775-1.3 1.3-2.95 1.986-4.776 1.986-1.825 0-3.476-.687-4.775-1.986-1.3-1.299-1.986-2.95-1.986-4.775 0-1.826.687-3.477 1.986-4.776a6.747 6.747 0 0 1 3.993-1.95c.344-.04 1.177-.04 1.527-.002zm-1.014 2.5a.622.622 0 0 0-.324.393c-.026.09-.034.672-.027 2.082.01 1.905.012 1.96.075 2.081.052.102.301.306 1.314 1.074.688.521 1.313.986 1.39 1.032.523.313 1.142-.245.877-.792-.064-.131-.19-.235-1.24-1.023l-1.17-.877V6.499c0-1.22-.01-1.776-.035-1.85a.616.616 0 0 0-.59-.434.78.78 0 0 0-.27.058z" fill="#AEAEAE" stroke="#AEAEAE" stroke-width=".2"/></svg>