<svg width="180" height="180" fill="none" xmlns="http://www.w3.org/2000/svg"><path d="M81.567 3.839c4.457-5.119 12.409-5.119 16.866 0l1.411 1.62a11.182 11.182 0 0 0 13.414 2.668l1.924-.957c6.076-3.023 13.422.02 15.581 6.454l.684 2.038a11.181 11.181 0 0 0 11.371 7.598l2.144-.148c6.771-.468 12.394 5.155 11.926 11.926l-.148 2.144a11.182 11.182 0 0 0 7.598 11.37l2.038.685c6.434 2.159 9.477 9.505 6.454 15.581l-.957 1.924a11.18 11.18 0 0 0 2.668 13.414l1.62 1.411c5.119 4.457 5.119 12.409 0 16.866l-1.62 1.411a11.18 11.18 0 0 0-2.668 13.414l.957 1.924c3.023 6.076-.02 13.422-6.454 15.581l-2.038.684a11.182 11.182 0 0 0-7.598 11.371l.148 2.144c.468 6.771-5.155 12.394-11.926 11.926l-2.144-.148a11.182 11.182 0 0 0-11.371 7.598l-.684 2.038c-2.159 6.434-9.505 9.477-15.581 6.454l-1.924-.957a11.18 11.18 0 0 0-13.414 2.668l-1.411 1.62c-4.457 5.119-12.409 5.119-16.866 0l-1.411-1.62a11.18 11.18 0 0 0-13.414-2.668l-1.924.957c-6.076 3.023-13.422-.02-15.581-6.454l-.684-2.038a11.182 11.182 0 0 0-11.371-7.598l-2.144.148c-6.771.468-12.394-5.155-11.926-11.926l.148-2.144a11.181 11.181 0 0 0-7.598-11.371l-2.038-.684c-6.434-2.159-9.477-9.505-6.454-15.581l.957-1.924A11.182 11.182 0 0 0 5.46 99.844l-1.62-1.411c-5.119-4.457-5.119-12.409 0-16.866l1.62-1.411a11.182 11.182 0 0 0 2.668-13.414l-.957-1.924c-3.023-6.076.02-13.422 6.454-15.581l2.038-.684a11.182 11.182 0 0 0 7.598-11.371l-.148-2.144c-.468-6.771 5.155-12.394 11.926-11.926l2.144.148a11.182 11.182 0 0 0 11.37-7.598l.685-2.038c2.159-6.434 9.505-9.477 15.581-6.454l1.924.957A11.182 11.182 0 0 0 80.156 5.46l1.411-1.62z" fill="#EC95B1"/><path fill-rule="evenodd" clip-rule="evenodd" d="M98.587 13.959c-4.538-5.212-12.636-5.212-17.174 0a10.487 10.487 0 0 1-12.58 2.502c-6.187-3.078-13.668.02-15.866 6.572a10.487 10.487 0 0 1-10.664 7.126c-6.895-.476-12.62 5.25-12.144 12.144a10.487 10.487 0 0 1-7.126 10.664c-6.552 2.198-9.65 9.679-6.572 15.867a10.487 10.487 0 0 1-2.502 12.579c-5.212 4.538-5.212 12.635 0 17.174a10.486 10.486 0 0 1 2.502 12.579c-3.078 6.188.02 13.668 6.572 15.867a10.486 10.486 0 0 1 7.126 10.664c-.476 6.895 5.25 12.62 12.144 12.144a10.486 10.486 0 0 1 10.664 7.126c2.198 6.551 9.68 9.65 15.867 6.572a10.487 10.487 0 0 1 12.579 2.502c4.538 5.212 12.636 5.212 17.174 0a10.486 10.486 0 0 1 12.579-2.502c6.188 3.078 13.668-.021 15.867-6.572a10.486 10.486 0 0 1 10.664-7.126c6.895.476 12.62-5.249 12.144-12.144a10.486 10.486 0 0 1 7.126-10.664c6.552-2.199 9.65-9.679 6.572-15.867a10.487 10.487 0 0 1 2.502-12.58c5.212-4.538 5.212-12.635 0-17.173a10.487 10.487 0 0 1-2.502-12.58c3.078-6.187-.02-13.668-6.572-15.866a10.486 10.486 0 0 1-7.126-10.664c.476-6.895-5.249-12.62-12.144-12.144a10.487 10.487 0 0 1-10.664-7.126c-2.199-6.552-9.679-9.65-15.867-6.572a10.486 10.486 0 0 1-12.579-2.502zm-14.82 2.049c3.294-3.784 9.172-3.784 12.467 0a13.607 13.607 0 0 0 16.322 3.247c4.492-2.235 9.923.014 11.519 4.77a13.606 13.606 0 0 0 13.837 9.247c5.005-.346 9.162 3.81 8.816 8.816a13.607 13.607 0 0 0 9.246 13.837c4.756 1.596 7.006 7.027 4.771 11.519a13.607 13.607 0 0 0 3.247 16.322c3.783 3.295 3.783 9.173 0 12.468a13.607 13.607 0 0 0-3.247 16.322c2.235 4.492-.015 9.923-4.771 11.519a13.606 13.606 0 0 0-9.246 13.837c.346 5.005-3.811 9.162-8.816 8.816a13.606 13.606 0 0 0-13.837 9.246c-1.596 4.756-7.027 7.006-11.519 4.771a13.607 13.607 0 0 0-16.322 3.247c-3.295 3.783-9.173 3.783-12.468 0a13.607 13.607 0 0 0-16.322-3.247c-4.492 2.235-9.923-.015-11.519-4.771a13.607 13.607 0 0 0-13.837-9.246c-5.005.346-9.162-3.811-8.816-8.816a13.606 13.606 0 0 0-9.246-13.837c-4.756-1.596-7.006-7.027-4.771-11.519a13.607 13.607 0 0 0-3.247-16.322c-3.784-3.295-3.784-9.173 0-12.468a13.607 13.607 0 0 0 3.247-16.322c-2.235-4.492.015-9.923 4.77-11.519a13.607 13.607 0 0 0 9.247-13.837c-.346-5.005 3.81-9.162 8.816-8.816a13.607 13.607 0 0 0 13.837-9.246c1.596-4.757 7.027-7.006 11.519-4.771a13.607 13.607 0 0 0 16.322-3.247z" fill="#1B1F21"/><path d="m103.584 81.35-3.706-3.705-9.263 9.263-9.264-9.263-3.705 3.705 9.263 9.264-9.263 9.263 3.705 3.705 9.264-9.263 9.263 9.263 3.706-3.705-9.264-9.263 9.264-9.264zM112.23 91.334a2.162 2.162 0 1 1-4.324 0 2.162 2.162 0 0 1 4.324 0zM73.323 91.334a2.161 2.161 0 1 1-4.323 0 2.161 2.161 0 0 1 4.323 0zM93.497 71.162a2.161 2.161 0 1 1-4.323 0 2.161 2.161 0 0 1 4.323 0zM93.497 110.067a2.16 2.16 0 1 1-4.322 0 2.16 2.16 0 0 1 4.322 0zM136.35 90.87l-.781 4.926c-.724 4.562 2.026 8.119 6.409 8.819 4.323.69 8.017-1.837 8.741-6.398l.781-4.926-15.15-2.42zm11.803 6.937c-.45 2.838-2.746 4.383-5.735 3.906-3.01-.481-4.734-2.669-4.284-5.507l.338-2.128 10.019 1.6-.338 2.129zM133.154 105.595l-1.071 2.621 14.195 5.838 1.071-2.621-14.195-5.838zM134.774 126.092c2.519.872 4.811.014 6.492-2.512 1.749-2.629 1.598-5.766-.58-7.225-2.806-1.881-4.873.116-6.644 1.817-1.294 1.28-2.401 2.39-3.609 1.581-1.242-.832-1.076-2.227-.19-3.559.976-1.468 2.304-2.059 4.125-1.358l.938-2.851c-2.751-.93-5.22-.066-7.128 2.802-1.896 2.851-1.688 5.828.727 7.447 2.722 1.823 4.874-.043 6.616-1.738 1.34-1.274 2.47-2.418 3.643-1.632.987.662 1.009 1.886.055 3.32-.875 1.314-2.163 1.66-3.49 1.142l-.955 2.766zM124.267 120.46l-7.806 6.82 1.666 1.919 5.677-4.96 2.753 3.174-3.81 3.329 1.665 1.92 3.811-3.329 2.323 2.678-5.523 4.825 1.666 1.92 7.651-6.685-10.073-11.611zM103.704 133.269l3.6-1.575 10.247 7.607.075-.033-.455-.943-.455-.943a26.292 26.292 0 0 1-.473-.935l-.455-.943-2.748-6.322 2.531-1.108 5.84 13.434-3.581 1.567-10.187-7.521-.057.024.439.906c.148.308.294.61.438.905.136.314.276.618.419.914l.447.924 2.764 6.36-2.55 1.116-5.839-13.434zm16.033 10.292c.175.506.271.965.286 1.376.008.429-.051.806-.178 1.13a2.376 2.376 0 0 1-.521.856c-.239.238-.52.429-.845.571-.25.109-.516.166-.797.17a4.11 4.11 0 0 1-.859-.027 12.437 12.437 0 0 0-.841-.035c-.263.01-.508.065-.733.164-.187.082-.333.243-.437.482-.104.24-.123.539-.056.898l-1.369.599c-.344-.998-.38-1.834-.107-2.506.273-.672.729-1.147 1.366-1.426.25-.11.513-.173.788-.189.282-.003.568.006.86.027.298.034.578.046.841.035.269.002.515-.046.74-.145.188-.082.334-.243.438-.482.104-.24.123-.539.056-.898l1.368-.6zM102.745 141.645c-.263-4.549-3.662-7.703-8.195-7.439-4.533.263-7.546 3.79-7.284 8.339.264 4.57 3.662 7.703 8.195 7.44 4.533-.264 7.548-3.77 7.284-8.34zm-12.559.73c-.184-3.197 1.615-5.398 4.514-5.567 2.9-.169 4.94 1.81 5.125 5.007.184 3.197-1.615 5.398-4.514 5.567-2.9.169-4.94-1.81-5.125-5.007zM78.146 140.311c-.238.728-.547 1.275-.925 1.64-.39.361-.825.57-1.304.628a3.176 3.176 0 0 1-1.481-.143 3.07 3.07 0 0 1-1.258-.76c-.351-.332-.577-.76-.678-1.283-.102-.523-.033-1.149.205-1.877.234-.715.547-1.253.938-1.613.39-.361.828-.577 1.31-.649a3.08 3.08 0 0 1 1.463.137c.505.167.93.423 1.277.767.347.345.57.779.672 1.302.088.519.015 1.136-.219 1.851zM68.996 128.796l-3.899-3.093c-3.61-2.865-8.047-2.198-10.8 1.296-2.714 3.446-2.325 7.915 1.285 10.78l3.9 3.094 9.514-12.077zm-11.802 6.938c-2.247-1.782-2.467-4.548-.59-6.931 1.89-2.399 4.636-2.838 6.882-1.055l1.685 1.336-6.293 7.987-1.684-1.337zM57.788 118.819l-1.76-2.215-11.998 9.592 1.758 2.215 12-9.592zM39.174 110.309c-1.984 1.784-2.35 4.211-.968 6.914 1.44 2.812 4.245 4.204 6.574 3.003 3.002-1.547 2.267-4.33 1.647-6.71-.486-1.757-.914-3.267.378-3.933 1.328-.685 2.462.138 3.191 1.562.804 1.571.673 3.022-.822 4.278l2.027 2.209c2.147-1.961 2.594-4.545 1.024-7.613-1.56-3.049-4.254-4.314-6.838-2.982-2.911 1.501-2.332 4.294-1.703 6.647.459 1.794.906 3.341-.35 3.988-1.055.544-2.132-.032-2.917-1.566-.72-1.406-.395-2.704.702-3.615l-1.945-2.182zM49.177 103.836l-2.094-10.172-2.484.515 1.523 7.398-4.106.851-1.023-4.965-2.483.515 1.022 4.965-3.465.719-1.482-7.197-2.484.515 2.053 9.971 15.023-3.115zM48.108 79.52l-.393 3.92-11.627 5.243-.008.082a642.999 642.999 0 0 1 2.084.127c.342.007.69.022 1.044.044L40.25 89l6.839.69-.277 2.757-14.53-1.466.39-3.901 11.523-5.233.006-.061a688.75 688.75 0 0 0-2.003-.12 23.97 23.97 0 0 0-.999-.08l-1.022-.062-6.879-.694.279-2.778 14.531 1.467zm-16.792 8.99c-.525-.094-.97-.235-1.335-.423a2.918 2.918 0 0 1-.895-.71 2.362 2.362 0 0 1-.488-.874 2.745 2.745 0 0 1-.083-1.019c.027-.272.108-.532.243-.78.122-.263.27-.51.444-.74.161-.244.309-.484.442-.718.12-.235.191-.476.216-.72.02-.205-.048-.411-.205-.62-.158-.208-.409-.371-.753-.488l.15-1.491c1.036.187 1.78.564 2.23 1.133.45.568.64 1.199.57 1.893a2.306 2.306 0 0 1-.222.782c-.134.248-.283.495-.444.74a5.506 5.506 0 0 0-.442.718 1.81 1.81 0 0 0-.237.72c-.02.203.048.41.205.618.158.209.409.371.753.489l-.15 1.49zM41.27 74.506c4.078 2.006 8.485.586 10.485-3.505s.42-8.458-3.657-10.465c-4.095-2.015-8.484-.586-10.484 3.505s-.439 8.449 3.657 10.465zm5.54-11.334c2.865 1.41 3.891 4.064 2.612 6.681s-3.998 3.427-6.863 2.017c-2.865-1.41-3.892-4.064-2.613-6.681 1.28-2.617 4-3.427 6.864-2.017zM54.287 53.874c-.518-.563-.844-1.099-.978-1.608-.124-.518-.095-1.001.087-1.45.172-.457.454-.867.845-1.229.39-.362.815-.606 1.274-.733.46-.146.941-.137 1.446.029.505.165 1.016.53 1.534 1.093.509.553.826 1.088.95 1.607.124.518.1 1.006-.073 1.464-.163.449-.44.854-.83 1.216a3.2 3.2 0 0 1-1.29.747 2.423 2.423 0 0 1-1.46-.044c-.495-.175-.996-.539-1.505-1.092zM68.774 51.367l4.592-1.909c4.252-1.767 5.835-5.98 4.136-10.095-1.675-4.058-5.754-5.895-10.006-4.128l-4.592 1.909 5.87 14.223zm-.284-13.724c2.646-1.1 5.16.056 6.318 2.862 1.166 2.826.21 5.445-2.436 6.545l-1.984.824-3.882-9.406 1.984-.825zM82.966 46.375l2.786-.456-2.47-15.194-2.785.456 2.47 15.194zM99.549 34.246c-.576-2.61-2.503-4.123-5.528-4.24-3.147-.122-5.733 1.647-5.834 4.273-.13 3.384 2.646 4.108 5.017 4.734 1.764.438 3.285.805 3.229 2.261-.058 1.498-1.329 2.085-2.923 2.023-1.758-.068-2.954-.895-3.31-2.819l-2.913.688c.648 2.84 2.672 4.5 6.106 4.633 3.413.132 5.834-1.602 5.946-4.515.127-3.282-2.583-4.147-4.934-4.751-1.783-.48-3.345-.849-3.29-2.264.045-1.19 1.073-1.849 2.79-1.782 1.574.061 2.542.982 2.795 2.388l2.849-.629zM100.289 46.13l9.869 3.132.764-2.427-7.177-2.278 1.265-4.012 4.817 1.529.764-2.427-4.817-1.529 1.067-3.385 6.982 2.215.765-2.427-9.673-3.07-4.626 14.68zM121.8 56.953l-3.218-2.26 1.122-12.741-.067-.047-.565.88-.564.882c-.174.296-.356.594-.548.893l-.565.881-3.941 5.65-2.262-1.588 8.374-12.008 3.201 2.248-1.08 12.646.051.036.541-.848.541-.848c.195-.28.381-.559.558-.835l.553-.865 3.964-5.684 2.279 1.6-8.374 12.008zm.385-19.096c.338-.414.679-.735 1.02-.962a2.919 2.919 0 0 1 1.054-.438c.35-.071.683-.071.999 0 .327.08.636.222.927.426.223.157.41.354.56.593.168.236.31.486.425.75.134.261.271.507.409.738.147.22.32.4.521.542.168.117.381.158.639.123.258-.036.522-.177.792-.421l1.224.86c-.669.815-1.361 1.282-2.075 1.399-.713.116-1.355-.026-1.925-.426a2.291 2.291 0 0 1-.571-.576 9.933 9.933 0 0 1-.426-.75 5.518 5.518 0 0 0-.409-.739 1.8 1.8 0 0 0-.51-.558c-.167-.118-.38-.158-.638-.123-.258.036-.522.176-.793.42l-1.223-.858zM129.638 53.527c-3.729 2.6-4.636 7.155-2.046 10.898 2.59 3.743 7.16 4.481 10.89 1.882 3.746-2.61 4.636-7.154 2.046-10.897-2.59-3.743-7.143-4.494-10.89-1.883zm7.175 10.37c-2.621 1.826-5.431 1.435-7.088-.96-1.656-2.393-1.039-5.172 1.582-6.999 2.621-1.826 5.431-1.436 7.088.959 1.656 2.394 1.039 5.173-1.582 7zM141.291 75.07c.743-.177 1.369-.2 1.877-.069.511.145.916.407 1.217.785.313.375.532.822.655 1.341.123.52.128 1.01.014 1.474-.098.474-.342.89-.733 1.252-.391.36-.957.63-1.7.808-.73.175-1.35.19-1.861.045a2.429 2.429 0 0 1-1.237-.78 3.102 3.102 0 0 1-.651-1.322 3.229 3.229 0 0 1-.018-1.494c.11-.476.361-.895.752-1.256.394-.348.956-.609 1.685-.784z" fill="#1B1F21"/></svg>