<svg width="272" height="207" fill="none" xmlns="http://www.w3.org/2000/svg"><path d="M99.624 41.884a38.828 38.828 0 0 1 37.058-9.93l14.586 3.8a38.833 38.833 0 0 0 19.858-.074l26.299-7.06c11.113-2.983 22.543 3.642 25.512 14.787l.101.38a20.193 20.193 0 0 0 14.44 14.354c15.179 3.93 20.277 22.957 9.097 33.95a20.193 20.193 0 0 0-5.328 19.652l.102.379c3.001 11.136-3.585 22.588-14.701 25.561l-26.305 7.036a38.825 38.825 0 0 0-17.234 9.866l-10.733 10.583a38.827 38.827 0 0 1-37.058 9.93l-14.586-3.799a38.835 38.835 0 0 0-19.858.072l-26.299 7.06c-11.113 2.983-22.543-3.641-25.512-14.786l-.101-.38a20.192 20.192 0 0 0-14.44-14.354c-15.179-3.931-20.277-22.957-9.097-33.95a20.193 20.193 0 0 0 5.328-19.652l-.102-.38c-3.002-11.135 3.585-22.588 14.701-25.56l26.305-7.036a38.836 38.836 0 0 0 17.234-9.866l10.733-10.583z" fill="#FFAD20"/><path fill-rule="evenodd" clip-rule="evenodd" d="M80.165 67.042a37.89 37.89 0 0 1-3.064.96l-4.892 1.309a4.364 4.364 0 0 0 5.343 3.087l.677-.18c.37-.1.738-.203 1.104-.312a4.364 4.364 0 0 0 2.864-5.664c-.669.286-1.346.553-2.032.8zm8.782-4.543a4.364 4.364 0 0 0 6.327.554c.286-.256.57-.515.849-.778l.557-.526a4.364 4.364 0 0 0 .183-6.168l-3.733 3.518a36.624 36.624 0 0 1-4.183 3.4zm10.485-9.338a4.364 4.364 0 0 0 6.168.183l.558-.525c.146-.139.294-.275.443-.41a4.362 4.362 0 0 0 .466-5.968 37.252 37.252 0 0 0-3.902 3.202l-3.733 3.518zm9.493-7.961a4.363 4.363 0 0 0 5.697 1.848c.365-.173.734-.34 1.105-.5a4.364 4.364 0 0 0 2.376-5.499 37.805 37.805 0 0 0-9.178 4.151zm11.336-4.729a4.363 4.363 0 0 0 4.807 3.575 33.53 33.53 0 0 1 1.207-.12 4.365 4.365 0 0 0 4.01-4.45 37.52 37.52 0 0 0-7.886.553c-.717.127-1.43.274-2.138.442zm12.253-.849a4.363 4.363 0 0 0 3.387 4.936c.197.042.393.087.59.133l.745.176a4.363 4.363 0 0 0 5.25-3.243l-4.992-1.18a36.747 36.747 0 0 0-4.98-.822zm13.407 2.814a4.363 4.363 0 0 0 3.243 5.25l.745.177c.374.088.748.171 1.124.249a4.363 4.363 0 0 0 5.202-3.643 37.333 37.333 0 0 1-4.318-.63c-.335-.07-.67-.144-1.004-.223l-4.992-1.18zm18.032 1.9a4.363 4.363 0 0 0 5.312 3.473c.371-.09.742-.183 1.112-.282l.676-.182a4.364 4.364 0 0 0 3.084-5.346l-4.891 1.313a38.567 38.567 0 0 1-3.133.7 37.84 37.84 0 0 1-2.16.324zm12.582-2.98a4.364 4.364 0 0 0 5.346 3.082l1.353-.363a4.364 4.364 0 0 0 3.084-5.345l-9.783 2.625zm12.181-3.27a4.364 4.364 0 0 0 5.346 3.083l.676-.182c.21-.056.42-.108.63-.155a4.363 4.363 0 0 0 3.372-4.756 20.06 20.06 0 0 0-4.335.5c-.266.06-.532.126-.798.197l-4.891 1.313zm14.384-1.55a4.364 4.364 0 0 0 2.261 5.354c.383.181.756.378 1.118.59a4.365 4.365 0 0 0 5.686-1.137 18.32 18.32 0 0 0-3.483-2.63 19.05 19.05 0 0 0-3.473-1.587 19.496 19.496 0 0 0-2.109-.59zm11.823 8.207a4.365 4.365 0 0 0-2.333 5.28c.062.196.119.394.173.595l.005.019c.013.05.027.098.042.147.011.05.024.1.037.149l.005.018c.114.43.242.856.383 1.276a4.362 4.362 0 0 0 6.046 2.54 17.23 17.23 0 0 1-1.084-1.905 17.088 17.088 0 0 1-1.129-3.034l-.088-.333a18.35 18.35 0 0 0-.572-1.766 17.255 17.255 0 0 0-1.485-2.986zm10.267 15.573a4.364 4.364 0 0 0 2.778 5.903c.415.122.835.233 1.259.333.182.043.361.088.538.136a4.364 4.364 0 0 0 5.199-2.587 18.37 18.37 0 0 0-1.982-.931 19.2 19.2 0 0 0-2.757-.866 18.855 18.855 0 0 1-3.077-1.009c-.676-.289-1.33-.616-1.958-.979zm11.899 5.15a4.364 4.364 0 0 0-.279 5.758c.219.275.426.557.62.847a4.364 4.364 0 0 0 5.573 1.475 17.18 17.18 0 0 0-2.781-5.042 17.01 17.01 0 0 0-3.133-3.038zm6.568 10.522a4.365 4.365 0 0 0-4.089 4.064c-.023.348-.061.696-.113 1.043a4.364 4.364 0 0 0 3.121 4.848 17.193 17.193 0 0 0 1.346-5.6 17.083 17.083 0 0 0-.265-4.355zm-2.239 12.2a4.364 4.364 0 0 0-5.796.358c-.129.13-.262.26-.398.387-.318.299-.626.605-.924.918a4.364 4.364 0 0 0 .546 6.501 18.261 18.261 0 0 1 2.615-3.493c.242-.254.493-.503.751-.746a19.22 19.22 0 0 0 1.955-2.128c.46-.584.877-1.184 1.251-1.797zm-8.915 15.925a4.363 4.363 0 0 0-3.966 5.223c.088.433.19.865.306 1.296l.005.018c.013.05.027.099.042.147.012.05.024.099.038.149l.005.018c.054.201.103.402.147.602a4.365 4.365 0 0 0 4.661 3.407 16.9 16.9 0 0 0-.064-2.19 17.114 17.114 0 0 0-.336-2.156 16.259 16.259 0 0 0-.195-.798l-.09-.333a17.073 17.073 0 0 1-.539-3.192 16.757 16.757 0 0 1-.014-2.191zm.549 15.183a4.364 4.364 0 0 0-5.492 1.858c-.208.365-.433.722-.673 1.07a4.364 4.364 0 0 0 .719 5.767 19.309 19.309 0 0 0 3.745-4.676 18.457 18.457 0 0 0 1.701-4.019zm-8.992 11.273a4.365 4.365 0 0 0-5.299-2.432 15.45 15.45 0 0 1-.623.18l-.676.181a4.363 4.363 0 0 0-3.088 5.343l4.892-1.308a20.262 20.262 0 0 0 4.794-1.964zm-12.085 3.914a4.364 4.364 0 0 0-5.343-3.088l-1.354.362a4.364 4.364 0 0 0-3.088 5.343l9.785-2.617zm-12.184 3.259a4.364 4.364 0 0 0-5.343-3.088l-.677.181c-.37.099-.738.203-1.104.311a4.364 4.364 0 0 0-2.864 5.664 38.234 38.234 0 0 1 4.105-1.48c.329-.098.659-.191.991-.28l4.892-1.308zm-16.738 6.812a4.363 4.363 0 0 0-6.327-.554c-.286.255-.569.514-.849.778l-.557.525a4.363 4.363 0 0 0-.183 6.168l3.733-3.517a36.654 36.654 0 0 1 4.183-3.4zm-10.485 9.337a4.364 4.364 0 0 0-6.168-.183l-.558.526c-.146.138-.294.275-.443.41a4.364 4.364 0 0 0-.467 5.968 36.83 36.83 0 0 0 3.903-3.203l3.733-3.518zm-9.493 7.961a4.363 4.363 0 0 0-5.697-1.848c-.365.173-.734.34-1.105.5a4.363 4.363 0 0 0-2.376 5.499 37.807 37.807 0 0 0 9.178-4.151zm-11.336 4.729a4.363 4.363 0 0 0-4.807-3.574c-.402.047-.804.087-1.207.12a4.365 4.365 0 0 0-4.01 4.449c.729.026 1.457.03 2.184.013a36.83 36.83 0 0 0 3.543-.249 38.18 38.18 0 0 0 4.297-.759zm-12.253.849a4.363 4.363 0 0 0-3.387-4.935 31.282 31.282 0 0 1-.59-.134l-.745-.176a4.364 4.364 0 0 0-5.25 3.243l4.992 1.18a35.93 35.93 0 0 0 2.814.55c.721.112 1.443.203 2.166.272zm-13.407-2.814a4.362 4.362 0 0 0-3.243-5.25l-.745-.176a37.027 37.027 0 0 0-1.124-.249 4.364 4.364 0 0 0-5.202 3.643 36.816 36.816 0 0 1 5.322.852l4.992 1.18zm-18.032-1.9a4.364 4.364 0 0 0-5.312-3.473c-.371.089-.742.184-1.112.283l-.677.182a4.363 4.363 0 0 0-3.083 5.345l4.891-1.313a39.394 39.394 0 0 1 3.133-.7 37.754 37.754 0 0 1 2.16-.324zm-12.582 2.981a4.363 4.363 0 0 0-5.346-3.083l-1.353.363a4.364 4.364 0 0 0-3.084 5.346l9.783-2.626zm-12.181 3.27a4.364 4.364 0 0 0-5.346-3.084l-.677.182c-.21.056-.42.108-.629.156a4.363 4.363 0 0 0-3.373 4.755 20.144 20.144 0 0 0 5.134-.697l4.89-1.312zM68.9 170.516a4.363 4.363 0 0 0-2.261-5.353 14.832 14.832 0 0 1-1.118-.591 4.365 4.365 0 0 0-5.686 1.137 18.323 18.323 0 0 0 3.483 2.63c.471.276.956.532 1.452.767a19.25 19.25 0 0 0 4.13 1.41zm-11.823-8.206a4.365 4.365 0 0 0 2.333-5.281c-.062-.196-.12-.394-.173-.595l-.005-.018a4.354 4.354 0 0 0-.042-.148 4.44 4.44 0 0 0-.037-.148l-.005-.019c-.114-.43-.242-.856-.383-1.275a4.363 4.363 0 0 0-6.046-2.54 17.037 17.037 0 0 1 1.637 3.173 16.579 16.579 0 0 1 .576 1.765l.088.333a17.7 17.7 0 0 0 1.017 2.824 17.375 17.375 0 0 0 1.04 1.929zM46.81 146.736a4.364 4.364 0 0 0-2.778-5.903 23.812 23.812 0 0 0-1.259-.333 14.465 14.465 0 0 1-.538-.136 4.364 4.364 0 0 0-5.199 2.588c.63.344 1.292.655 1.982.931a19.265 19.265 0 0 0 2.757.865 18.792 18.792 0 0 1 3.076 1.009c.677.289 1.331.617 1.96.979zm-11.9-5.15a4.364 4.364 0 0 0 .28-5.758 12.757 12.757 0 0 1-.62-.847 4.365 4.365 0 0 0-5.573-1.475 17.23 17.23 0 0 0 1.948 3.905 17.116 17.116 0 0 0 3.965 4.175zm-6.567-10.522A4.363 4.363 0 0 0 32.432 127c.023-.348.06-.696.113-1.043a4.364 4.364 0 0 0-3.121-4.847 17.213 17.213 0 0 0-1.346 5.598 17.123 17.123 0 0 0 .265 4.356zm2.24-12.199a4.364 4.364 0 0 0 5.796-.359c.128-.13.26-.259.397-.387.318-.298.626-.605.924-.918a4.363 4.363 0 0 0-.546-6.501 18.476 18.476 0 0 1-3.367 4.239 19.386 19.386 0 0 0-1.954 2.128c-.46.584-.877 1.184-1.25 1.798zm8.914-15.925a4.365 4.365 0 0 0 3.966-5.223 21.24 21.24 0 0 0-.306-1.296l-.005-.019a4.453 4.453 0 0 0-.042-.147c-.012-.05-.024-.1-.038-.149l-.005-.018c-.054-.2-.103-.401-.147-.601a4.364 4.364 0 0 0-4.661-3.407 17.496 17.496 0 0 0 .595 5.144l.09.333a16.909 16.909 0 0 1 .553 5.383zm-.549-15.183a4.364 4.364 0 0 0 5.492-1.859c.208-.364.433-.722.673-1.07a4.364 4.364 0 0 0-.719-5.767 19.47 19.47 0 0 0-2.87 3.287 18.99 18.99 0 0 0-1.843 3.345c-.285.673-.53 1.362-.733 2.064zm8.992-11.274a4.364 4.364 0 0 0 5.299 2.432c.205-.064.413-.124.623-.18l.676-.18a4.364 4.364 0 0 0 3.088-5.344l-4.892 1.309a20.716 20.716 0 0 0-2.836.986c-.676.292-1.33.62-1.958.977zm12.085-3.914a4.363 4.363 0 0 0 5.343 3.088l1.354-.362a4.364 4.364 0 0 0 3.088-5.343l-9.785 2.617z" fill="#1B1F21"/><path d="M138.294 137.641c-.331-1.232-.353-2.37-.068-3.414a5.859 5.859 0 0 1 1.672-2.747c.813-.761 1.821-1.302 3.023-1.624 1.223-.328 2.366-.363 3.43-.105a5.412 5.412 0 0 1 2.78 1.519c.79.755 1.354 1.76 1.69 3.015.33 1.232.345 2.384.044 3.455a5.701 5.701 0 0 1-1.648 2.706c-.793.755-1.8 1.296-3.023 1.624-1.203.322-2.343.368-3.422.138a5.861 5.861 0 0 1-2.821-1.544c-.775-.783-1.327-1.79-1.657-3.023zm3.669-.983c.207.77.614 1.321 1.223 1.654.603.31 1.284.363 2.043.16.739-.198 1.288-.593 1.649-1.185.383-.598.474-1.271.273-2.019-.206-.77-.621-1.308-1.246-1.612-.608-.332-1.282-.4-2.02-.202-.759.204-1.32.601-1.681 1.193-.367.571-.447 1.241-.241 2.011zM121.017 73.166c-.33-1.233-.352-2.37-.067-3.414a5.868 5.868 0 0 1 1.671-2.748c.814-.76 1.822-1.302 3.024-1.624 1.223-.328 2.366-.363 3.43-.105a5.418 5.418 0 0 1 2.78 1.52c.79.755 1.353 1.76 1.69 3.014.33 1.233.345 2.384.044 3.456a5.714 5.714 0 0 1-1.648 2.706c-.793.754-1.8 1.296-3.024 1.623-1.202.323-2.342.369-3.421.139a5.86 5.86 0 0 1-2.821-1.544c-.775-.783-1.327-1.79-1.658-3.023zm3.67-.984c.206.77.614 1.322 1.223 1.654.603.31 1.284.364 2.043.16.738-.198 1.288-.593 1.649-1.185.383-.597.474-1.27.273-2.019-.206-.77-.622-1.307-1.246-1.612-.609-.332-1.282-.4-2.02-.202-.759.204-1.32.602-1.681 1.194-.367.57-.447 1.24-.241 2.01zM201.725 75.276c-5.498 1.474-8.382 6.812-6.836 12.584 1.56 5.82 6.714 9.063 12.215 7.59 2.611-.7 4.577-2.188 5.707-4.185 1.13-1.997 1.412-4.482.696-7.158l-.505-1.883-10.75 2.88.947 3.536 6.782-1.817c.395 2.234-1.193 4.248-3.834 4.956-1.728.463-3.282.197-4.536-.66-1.258-.86-2.234-2.332-2.767-4.319-.524-1.957-.382-3.694.295-5.046.675-1.35 1.895-2.339 3.574-2.789 1.205-.322 2.282-.272 3.204.095.923.367 1.709 1.058 2.319 2.05l.118.19 3.418-2.09-.112-.19c-1.956-3.348-5.71-4.876-9.935-3.744zM60.161 113.483l-3.921 1.051 5.266 19.653 3.684-.987-3.733-13.931 7.042 5.629.91-.244 3.264-8.467 3.752 14.003 3.71-.994-5.267-19.654-3.923 1.051-3.34 8.861-7.444-5.971z" fill="#1B1F21"/><path fill-rule="evenodd" clip-rule="evenodd" d="m88.26 105.954-3.997 1.071-1.934 21.583 3.912-1.049.48-6.281 6.39-1.711 3.556 5.199 4.06-1.088-12.467-17.724zm2.635 10.39-3.866 1.036.47-5.979 3.396 4.943zM105.047 101.456l-7.382 1.978 5.266 19.653 3.832-1.026-2.046-7.637 2.616-.701 6.748 6.377 4.376-1.173-7.45-7.048c1.788-1.386 2.632-3.549 1.948-6.102-.485-1.81-1.537-3.143-2.942-3.896-1.402-.753-3.135-.916-4.966-.425zm-1.298 9.356-1.284-4.793 3.5-.938c.791-.212 1.483-.132 2.02.166.536.297.942.826 1.138 1.557.199.744.111 1.404-.204 1.926-.316.522-.877.932-1.67 1.144l-3.5.938z" fill="#1B1F21"/><path d="m119.265 97.646-3.833 1.027 5.267 19.654 3.832-1.027-2.273-8.482 1.639-.439 8.231 6.885 4.567-1.224-10.09-8.508 4.628-11.093-4.638 1.243-3.597 8.929-1.742.466-1.991-7.43zM145.942 90.498l-12.646 3.388 5.266 19.654 12.892-3.454-.968-3.613-9.06 2.428-1.291-4.818 6.081-1.63-.968-3.612-6.081 1.629-1.071-3.998 8.814-2.362-.968-3.612zM162.154 86.154l-14.591 3.91.988 3.689 5.367-1.438 4.278 15.964 3.832-1.027-4.278-15.964 5.392-1.445-.988-3.689zM168.672 84.407l-3.832 1.027 5.266 19.654 3.832-1.027-5.266-19.654zM176.971 82.184l-3.957 1.06 5.266 19.654 3.636-.974-3.645-13.603 12.12 11.331 3.958-1.06-5.267-19.653-3.659.98 3.618 13.503-12.07-11.238z" fill="#1B1F21"/></svg>