<svg width="180" height="181" fill="none" xmlns="http://www.w3.org/2000/svg"><path d="M180 90.5c0 49.706-40.294 90-90 90s-90-40.294-90-90S40.294.5 90 .5s90 40.294 90 90zm-130.12 0c0 22.157 17.963 40.119 40.12 40.119 22.157 0 40.119-17.962 40.119-40.119S112.157 50.38 90 50.38 49.88 68.344 49.88 90.5z" fill="#ACD6DE"/><path d="M162.001 103.379c2.587-.417 4.177-2.224 4.463-5.188.298-3.085-1.286-5.724-3.849-5.972-3.304-.32-4.17 2.366-4.917 4.659-.529 1.707-.974 3.18-2.396 3.043-1.462-.141-1.964-1.423-1.813-2.985.166-1.723 1.043-2.85 2.946-3.091l-.508-2.9c-2.815.476-4.554 2.37-4.879 5.734-.324 3.345 1.236 5.821 4.079 6.096 3.204.309 4.204-2.303 4.93-4.577.57-1.724 1.02-3.237 2.402-3.104 1.161.113 1.747 1.16 1.584 2.842-.149 1.542-1.105 2.441-2.495 2.609l.453 2.834zM158.016 105.188c-4.226-1.443-8.35.488-9.792 4.715-1.443 4.228.64 8.277 4.867 9.72 4.246 1.449 8.35-.488 9.793-4.716 1.442-4.227-.622-8.27-4.868-9.719zm-3.996 11.711c-2.97-1.013-4.301-3.466-3.378-6.171.922-2.704 3.475-3.831 6.445-2.817 2.97 1.014 4.301 3.467 3.379 6.171-.923 2.704-3.476 3.831-6.446 2.817zM144.598 119.247l-1.465 2.359 5.384 3.343-2.632 4.239 2.119 1.317 2.632-4.24 3.196 1.985-3.566 5.744 2.12 1.316 5.03-8.103-12.818-7.96zM136.432 130.896l-1.883 2.04 9.21 8.503-2.989 3.238 1.878 1.733 7.846-8.501-1.878-1.733-2.974 3.223-9.21-8.503zM130.265 149.794l-.88-7.372 8.341 8.293 2.325-1.553-10.903-10.864-2.443 1.631.735 6.139-5.453-2.988-2.426 1.62 5.851 14.238 2.292-1.531-4.488-10.89 6.564 3.601.485-.324zM117.18 146.126l-2.662.92-.088 4.799-5.172 1.787-3.03-3.721-2.777.959 10.366 12.385 2.852-.986.511-16.143zm-2.804 8.335-.108 5.295-3.353-4.099 3.461-1.196zM102.413 150.903l-2.76.3.646 5.961-2.4.26-4.466-5.547-3.14.34 4.865 6.051c-1.615.782-2.586 2.283-2.369 4.284.297 2.74 2.53 4.3 5.43 3.985l5.82-.63-1.626-15.004zm-4.423 13.15c-1.36.147-2.309-.58-2.441-1.8-.134-1.241.639-2.134 1.999-2.281l3.02-.328.442 4.081-3.02.328zM88.272 151.991l-10.124-1.058-.26 2.481 7.364.77-.429 4.102-4.942-.516-.259 2.481 4.942.517-.361 3.462-7.163-.749-.26 2.482L86.704 167l1.568-15.009zM69.673 155.454c-.27.701-.659 1.249-1.169 1.642a3.541 3.541 0 0 1-1.802.709c-.674.072-1.367-.029-2.081-.303-.726-.279-1.31-.668-1.75-1.168a3.269 3.269 0 0 1-.854-1.707c-.128-.638-.055-1.314.219-2.028.269-.701.667-1.253 1.194-1.654a3.45 3.45 0 0 1 1.776-.697c.662-.077 1.356.024 2.082.303.714.274 1.3.657 1.757 1.149.453.504.741 1.082.865 1.733.111.646.032 1.32-.237 2.021zm-2.179-.836c.169-.439.16-.845-.028-1.218-.192-.361-.513-.628-.964-.801-.438-.168-.852-.176-1.24-.024-.402.148-.684.435-.848.86-.168.439-.15.841.055 1.207.187.373.5.644.938.812.45.173.87.184 1.259.031.384-.14.66-.429.828-.867zM42.78 145.872c-.953 2.441-.204 4.728 2.204 6.48 2.505 1.823 5.583 1.798 7.098-.285 1.953-2.685.079-4.795-1.517-6.603-1.202-1.322-2.245-2.454-1.405-3.609.864-1.188 2.224-.971 3.492-.047 1.4 1.018 1.926 2.346 1.167 4.108l2.755 1.034c1.02-2.667.272-5.127-2.462-7.116-2.716-1.976-5.64-1.889-7.32.421-1.894 2.604-.152 4.792 1.44 6.572 1.194 1.367 2.27 2.522 1.453 3.645-.687.944-1.886.917-3.253-.077-1.252-.912-1.54-2.191-.98-3.475l-2.671-1.048zM43.217 141.477c3.39-2.909 3.821-7.442.913-10.832-2.907-3.39-7.453-3.652-10.842-.744-3.405 2.922-3.822 7.442-.914 10.832 2.908 3.391 7.438 3.666 10.843.744zm-8.056-9.392c2.382-2.044 5.17-1.945 7.03.224 1.86 2.168 1.534 4.94-.848 6.984-2.381 2.044-5.17 1.945-7.03-.224-1.86-2.168-1.534-4.94.848-6.984zM37.954 122.847l-1.296-2.455-5.604 2.958-2.329-4.413-2.206 1.164 2.329 4.414-3.327 1.756-3.155-5.979-2.206 1.164 4.45 8.435 13.344-7.044zM32.057 109.988l-.807-2.657-11.991 3.644-1.281-4.216-2.445.743 3.363 11.07 2.444-.743-1.274-4.197 11.991-3.644zM18.893 95.057l6.79 2.998L14.3 101.01l.15 2.792 14.902-3.848-.158-2.934-5.655-2.495 5.348-3.17-.157-2.914-15.23-2.22.149 2.753 11.655 1.687-6.442 3.815.032.582zM28.683 85.558l.56-2.76-4.09-2.513 1.087-5.364 4.744-.722.584-2.879-15.93 2.643-.6 2.958 13.645 8.637zm-5.755-6.648-4.506-2.781 5.233-.808-.727 3.59zM31.985 70.504l1.148-2.529-5.458-2.479.998-2.198 7.047-1.02 1.306-2.877-7.683 1.107c.149-1.789-.65-3.389-2.481-4.22-2.51-1.14-4.988-.012-6.194 2.645l-2.42 5.331 13.737 6.24zM22.923 60c.565-1.246 1.674-1.693 2.791-1.185 1.136.516 1.51 1.636.945 2.882l-1.256 2.767-3.736-1.698 1.256-2.766zM38.156 57.82l6.078-8.168-2.001-1.49-4.42 5.94-3.309-2.462 2.967-3.987-2.001-1.49-2.967 3.987-2.792-2.079 4.3-5.778-2-1.49-5.958 8.006 12.103 9.01zM44.53 40.064c-.467-.587-.741-1.2-.822-1.84a3.54 3.54 0 0 1 .303-1.913c.28-.617.719-1.164 1.316-1.64.609-.486 1.24-.791 1.894-.918a3.274 3.274 0 0 1 1.903.13c.616.213 1.161.618 1.638 1.216.468.588.74 1.21.82 1.869.08.639-.02 1.267-.3 1.885-.27.609-.708 1.156-1.317 1.64-.598.477-1.225.788-1.88.933a3.538 3.538 0 0 1-1.932-.133c-.614-.232-1.154-.641-1.622-1.229zm1.826-1.454c.293.367.647.565 1.064.593.408.017.801-.124 1.179-.425.367-.293.584-.645.65-1.058.076-.42-.028-.81-.312-1.166-.293-.367-.648-.556-1.067-.565-.417-.028-.81.104-1.176.397-.378.3-.6.657-.665 1.07-.075.402.035.787.327 1.154zM66.436 21.62c-1.622-2.059-3.973-2.57-6.702-1.379-2.84 1.24-4.376 3.907-3.346 6.268 1.327 3.043 4.094 2.494 6.46 2.032 1.75-.368 3.253-.694 3.824.615.588 1.346-.288 2.409-1.726 3.036-1.586.692-2.998.474-4.133-1.072l-2.286 1.854c1.784 2.229 4.284 2.828 7.382 1.477 3.08-1.344 4.484-3.91 3.341-6.53-1.287-2.95-4.055-2.555-6.395-2.083-1.783.34-3.324.682-3.879-.59-.466-1.07.164-2.091 1.712-2.767 1.42-.62 2.67-.22 3.493.913l2.255-1.774zM70.014 24.182c.786 4.397 4.473 7.07 8.87 6.283 4.395-.787 6.927-4.572 6.14-8.969-.79-4.417-4.472-7.07-8.868-6.283-4.397.787-6.932 4.552-6.142 8.969zm12.179-2.18c.552 3.09-.948 5.444-3.76 5.947-2.812.503-5.035-1.184-5.587-4.274-.553-3.09.947-5.443 3.76-5.946 2.812-.503 5.034 1.184 5.587 4.274zM89.016 29.072l2.772.14.318-6.33 4.983.25.125-2.493-4.983-.25.189-3.758 6.75.34.126-2.493L89.772 14l-.756 15.072zM102.861 30.479l2.697.655 2.956-12.183 4.281 1.04.603-2.484-11.241-2.728-.603 2.483 4.262 1.035-2.955 12.182zM122.757 26.834l-6.045 4.31 3.275-11.3-2.478-1.296-4.301 14.781 2.603 1.362 5.032-3.59-.005 6.22 2.584 1.352 9.685-11.964-2.442-1.278-7.402 9.162.011-7.488-.517-.27zM125.801 40.025l2.09 1.888 4.244-2.24 4.061 3.669-1.796 4.45 2.18 1.97 5.843-15.057-2.24-2.023-14.382 7.343zm8.651-1.567 4.689-2.46-1.971 4.915-2.718-2.455zM137.018 50.462l1.6 2.27 4.899-3.456 1.391 1.973-2.684 6.596 1.82 2.582 2.931-7.19c1.468 1.034 3.251 1.154 4.895-.005 2.252-1.59 2.533-4.298.852-6.683l-3.374-4.785-12.33 8.698zm13.642-2.508c.788 1.119.613 2.301-.39 3.008-1.019.72-2.175.476-2.964-.642l-1.751-2.483 3.354-2.366 1.751 2.483zM144.878 62.27l3.965 9.376 2.298-.972-2.884-6.82 3.798-1.606 1.936 4.577 2.297-.972-1.936-4.577 3.206-1.356 2.805 6.634 2.298-.972-3.887-9.192-13.896 5.88zM156.947 76.838c.744-.104 1.412-.028 2.003.228a3.539 3.539 0 0 1 1.492 1.234c.389.555.636 1.212.742 1.969.108.77.049 1.47-.175 2.096a3.271 3.271 0 0 1-1.08 1.574c-.496.421-1.123.685-1.88.79-.744.104-1.419.022-2.025-.245a3.446 3.446 0 0 1-1.47-1.217c-.387-.542-.634-1.198-.742-1.969-.106-.757-.054-1.455.155-2.094a3.544 3.544 0 0 1 1.097-1.596c.512-.41 1.14-.666 1.883-.77zm.323 2.311c-.465.065-.815.27-1.052.614-.223.343-.301.754-.234 1.232.065.465.258.83.58 1.097.323.28.711.389 1.162.326.465-.065.808-.276 1.029-.632.237-.344.322-.749.257-1.214-.066-.478-.261-.85-.582-1.117-.308-.269-.695-.37-1.16-.306z" fill="#1B1F21"/></svg>