<svg width="180" height="181" fill="none" xmlns="http://www.w3.org/2000/svg"><circle cx="90" cy="90.5" r="90" fill="#BEDB39"/><path fill-rule="evenodd" clip-rule="evenodd" d="M90 9.5c-44.735 0-81 36.265-81 81s36.265 81 81 81 81-36.265 81-81-36.265-81-81-81zm-77.54 81c0-42.824 34.716-77.54 77.54-77.54 42.824 0 77.54 34.716 77.54 77.54 0 42.824-34.716 77.54-77.54 77.54-42.824 0-77.54-34.716-77.54-77.54z" fill="#1B1F21"/><path d="m90 60.5 2.807 23.099 12.814-9.009-8.845 13.051L117 90.5l-20.224 2.859 8.845 13.051-12.814-9.009L90 120.5l-2.807-23.099-12.814 9.009 8.845-13.051L63 90.5l20.224-2.859-8.845-13.05 12.814 9.008L90 60.5zM147.29 94.683c3.205.507 4.952 2.753 4.491 5.634-.331 2.064-1.601 3.287-3.476 3.556l.342 2.861c2.942-.351 5.193-2.571 5.743-6.004.713-4.454-2.092-8.25-6.632-8.97-4.582-.724-8.471 1.991-9.184 6.445-.68 4.25 1.674 7.577 5.885 8.243l1.335.212 1.371-8.561-2.486-.394-.903 5.639c-1.962-.373-2.989-2.379-2.616-4.709.474-2.962 2.884-4.466 6.13-3.952zM137.704 105.339l-1.292 2.596 3.419 3.576-2.51 5.044-4.933-.536-1.347 2.707 16.621 1.582 1.385-2.781-11.343-12.188zm3.986 8.127 3.765 3.954-5.444-.58 1.679-3.374zM130.803 119.172l-1.927 1.945 8.311 8.147-7.567-.94-.409.413 1.099 7.556-8.356-8.191-1.942 1.959 11.112 10.893 2.132-2.152-1.159-7.555 7.686.968 2.132-2.151-11.112-10.892zM117.352 131.255l-2.439 1.506 8.23 13.183 2.439-1.506-8.23-13.183zM112.862 134.392l-2.556.878 3.75 10.795-10.789-8.376-2.89.993 5.095 14.667 2.575-.885-3.722-10.717 10.742 8.305 2.89-.993-5.095-14.667zM96.005 147.001c.05 3.227-1.873 5.326-4.806 5.371-2.1.032-3.531-1.001-4.12-2.793l-2.776.829c.856 2.822 3.443 4.645 6.937 4.591 4.535-.07 7.81-3.472 7.74-8.044-.072-4.613-3.432-7.955-7.966-7.886-4.327.067-7.215 2.946-7.15 7.187l.021 1.345 8.715-.134-.038-2.503-5.741.088c.031-1.987 1.841-3.339 4.212-3.376 3.016-.046 4.921 2.056 4.972 5.325zM74.994 144.811c-.248.732-.566 1.281-.953 1.646-.4.36-.844.568-1.331.623a3.259 3.259 0 0 1-1.506-.155 3.14 3.14 0 0 1-1.273-.776c-.355-.337-.581-.77-.68-1.298-.1-.528-.025-1.158.223-1.89.244-.719.566-1.259.966-1.62.4-.36.846-.575 1.338-.643a3.149 3.149 0 0 1 1.486.149c.513.172.944.433 1.293.783.35.35.574.789.673 1.317.086.524.007 1.145-.236 1.864zM59.221 138.098c-1.994 2.547-4.815 2.984-7.129 1.191-1.657-1.284-2.121-2.981-1.453-4.744l-2.684-1.084c-1.111 2.733-.243 5.765 2.514 7.901 3.578 2.772 8.274 2.162 11.099-1.446 2.85-3.64 2.338-8.338-1.24-11.11-3.414-2.644-7.479-2.2-10.1 1.146l-.83 1.061 6.876 5.327 1.547-1.975-4.53-3.509c1.277-1.529 3.539-1.455 5.41-.006 2.38 1.844 2.54 4.669.52 7.248zM54.479 124.586l-1.67-2.373-4.796 1.268-3.244-4.611 2.84-4.047-1.742-2.475-9.371 13.745 1.789 2.543 16.194-4.05zm-9.082-.421-5.295 1.388 3.124-4.473 2.171 3.085zM45.63 112.005l-.789-2.616-11.179 3.332 4.467-6.148-.167-.555-7.19-2.673 11.239-3.35-.794-2.636-14.946 4.454.872 2.894 7.218 2.622-4.548 6.237.871 2.894 14.945-4.455zM41.458 94.44l-.143-2.852-15.582.778.143 2.852 15.582-.778zM40.868 88.812l.466-2.65-11.31-1.967 12.593-5.328.527-2.996-15.368-2.674-.47 2.67 11.23 1.954-12.51 5.322-.526 2.995 15.368 2.674zM37.888 68.098c-2.86-1.528-3.766-4.22-2.378-6.79.994-1.84 2.598-2.58 4.459-2.22l.622-2.815c-2.894-.631-5.754.73-7.408 3.791-2.146 3.974-.753 8.476 3.297 10.64 4.086 2.184 8.657.892 10.803-3.081 2.048-3.791.925-7.703-2.831-9.71l-1.191-.637-4.125 7.637 2.217 1.185 2.717-5.03c1.73.994 2.036 3.225.914 5.303-1.428 2.642-4.201 3.274-7.096 1.727zM49.893 51.001c-.525-.57-.855-1.11-.99-1.624-.124-.523-.092-1.01.094-1.46.178-.461.465-.873.864-1.237a3.13 3.13 0 0 1 1.299-.734c.467-.146.958-.134 1.47.034.513.169 1.032.538 1.557 1.107.515.56.835 1.1.96 1.624a2.447 2.447 0 0 1-.08 1.475c-.167.452-.45.86-.849 1.223a3.261 3.261 0 0 1-1.314.748 2.485 2.485 0 0 1-1.485-.05c-.502-.178-1.011-.546-1.526-1.106zM63.212 40.538c-1.286-2.963-.316-5.634 2.377-6.79 1.93-.828 3.648-.417 4.882 1.014l2.245-1.821c-1.874-2.283-4.965-2.983-8.174-1.605-4.163 1.788-5.883 6.177-4.06 10.375 1.838 4.236 6.227 6.047 10.39 4.259 3.973-1.706 5.536-5.465 3.846-9.359l-.537-1.234-8.001 3.436.997 2.298 5.271-2.263c.735 1.848-.418 3.785-2.595 4.72-2.77 1.19-5.338-.029-6.64-3.03zM77.495 42.81l2.897-.3 1.212-4.786 5.628-.585 2.18 4.433 3.021-.313-7.538-14.819-3.104.323-4.296 16.048zm4.776-7.693 1.35-5.278 2.416 4.887-3.766.39zM93.019 41.16l2.682.582 2.492-11.339 3.239 6.867.569.124 5.838-4.957-2.505 11.4 2.703.587 3.331-15.16-2.967-.644-5.806 5.006-3.278-6.981L96.35 26 93.02 41.16zM110.491 46.002l2.578 1.257 6.87-13.931-2.578-1.258-6.87 13.932zM115.523 48.066l2.109 1.683 7.187-8.907-1.379 13.543 2.384 1.904 9.766-12.102-2.126-1.696-7.135 8.842 1.344-13.466-2.385-1.903-9.765 12.102zM135.502 55.76c2.725-1.752 5.533-1.243 7.126 1.207 1.141 1.755 1.018 3.51-.197 4.956l2.178 1.9c1.952-2.216 2.135-5.364.237-8.283-2.462-3.787-7.099-4.747-10.96-2.264-3.895 2.505-4.964 7.11-2.501 10.897 2.349 3.614 6.335 4.525 9.916 2.222l1.135-.73-4.733-7.28-2.113 1.36 3.117 4.794c-1.711 1.027-3.822.217-5.11-1.764-1.638-2.52-.855-5.24 1.905-7.015zM144.683 74.295c.755-.183 1.391-.208 1.908-.078.52.145.934.407 1.241.787.32.377.544.827.671 1.35a3.08 3.08 0 0 1 .02 1.485c-.097.478-.344.899-.74 1.264-.396.366-.972.64-1.726.821-.741.18-1.372.197-1.893.053a2.479 2.479 0 0 1-1.261-.782 3.098 3.098 0 0 1-.666-1.33 3.215 3.215 0 0 1-.025-1.505c.111-.48.364-.904.76-1.27.4-.351.97-.617 1.711-.795z" fill="#1B1F21"/></svg>