<svg width="17" height="17" fill="none" xmlns="http://www.w3.org/2000/svg"><path fill-rule="evenodd" clip-rule="evenodd" d="M4.224.552a.601.601 0 0 0-.317.364 2.291 2.291 0 0 0-.031.422v.308l-.601.014c-.673.015-.848.052-1.225.258a2.262 2.262 0 0 0-.817.862C.98 3.297 1 2.76 1 8.863c0 6.093-.02 5.568.227 6.071.227.463.666.845 1.185 1.03l.262.094h11.652l.244-.085a2.15 2.15 0 0 0 1.376-1.481c.05-.186.054-.546.054-5.629 0-6.106.02-5.566-.234-6.085a2.122 2.122 0 0 0-.907-.904c-.357-.175-.618-.221-1.231-.221h-.504V1.34c0-.37-.033-.506-.155-.646-.263-.3-.767-.237-.939.119-.051.106-.062.188-.062.483v.356H5.036l-.01-.39C5.017.908 5.01.861 4.943.764a.575.575 0 0 0-.719-.213zm-.343 2.614c.014.416.06.545.244.678.222.16.504.145.714-.04.163-.143.193-.242.193-.644v-.351h6.936v.35c0 .403.03.502.193.645.215.189.51.198.738.024.161-.123.207-.26.22-.662l.012-.357h.482c.412 0 .507.009.649.062a.94.94 0 0 1 .5.48l.082.173.01.935.01.936H2.136l.01-.936c.01-.817.017-.95.065-1.057a.97.97 0 0 1 .331-.426c.218-.145.31-.163.835-.165l.491-.002.012.357zm10.97 7.21-.008 3.827-.079.167c-.095.2-.26.37-.45.463l-.14.07H2.826l-.14-.07a.98.98 0 0 1-.45-.461l-.08-.17-.008-3.825L2.14 6.55h12.72l-.008 3.826z" fill="#AEAEAE" stroke="#AEAEAE" stroke-width=".2"/></svg>